<?xml version="1.0" encoding="UTF-8" standalone="no" ?>
<!DOCTYPE svg PUBLIC "-//W3C//DTD SVG 1.1//EN" "http://www.w3.org/Graphics/SVG/1.1/DTD/svg11.dtd">
<svg xmlns="http://www.w3.org/2000/svg" xmlns:xlink="http://www.w3.org/1999/xlink" version="1.1" width="50" height="50" viewBox="0 0 500 500" xml:space="preserve">
<desc>Created with Fabric.js 4.6.0</desc>
<defs>
</defs>
<g transform="matrix(1.91 0 0 3.24 97.52 163.88)" id="gfssgBZ9vJlg5gMeyOoQ7"  >
<path style="stroke: rgb(0,0,0); stroke-width: 3; stroke-dasharray: none; stroke-linecap: butt; stroke-dashoffset: 0; stroke-linejoin: miter; stroke-miterlimit: 4; fill: rgb(255,255,255); fill-rule: nonzero; opacity: 1;" vector-effect="non-scaling-stroke"  transform=" translate(0, 0)" d="M -50 -50 L 50 -50 L 50 50 L -50 50 z" stroke-linecap="round" />
</g>
<g transform="matrix(5.39 0 0 5.39 314.71 457.75)" id="j-QRQkTuPColiXl-fVQzc"  >
<path style="stroke: rgb(0,0,0); stroke-width: 1; stroke-dasharray: none; stroke-linecap: butt; stroke-dashoffset: 0; stroke-linejoin: miter; stroke-miterlimit: 4; fill: rgb(255,255,255); fill-opacity: 0; fill-rule: nonzero; opacity: 1;" vector-effect="non-scaling-stroke"  transform=" translate(0, 0)" d="M 0 0" stroke-linecap="round" />
</g>
<g transform="matrix(47.81 0 0 57.77 347 315.51)" id="9lTPtfUR3H-06EVCkOgHg"  >
<path style="stroke: rgb(0,0,0); stroke-width: 3; stroke-dasharray: none; stroke-linecap: butt; stroke-dashoffset: 0; stroke-linejoin: miter; stroke-miterlimit: 4; fill: rgb(227,0,34); fill-rule: nonzero; opacity: 1;" vector-effect="non-scaling-stroke"  transform=" translate(0, 0)" d="M -3.15789 -3.15789 L 3.1578999999999997 -3.15789 L 3.1578999999999997 3.1578999999999997 L -3.15789 3.1578999999999997 z" stroke-linecap="round" />
</g>
<g transform="matrix(2.84 0 0 2.51 97.52 413.34)" id="gHFlkVb4NL4SH6FjOvhKb"  >
<path style="stroke: rgb(0,0,0); stroke-width: 3; stroke-dasharray: none; stroke-linecap: butt; stroke-dashoffset: 0; stroke-linejoin: miter; stroke-miterlimit: 4; fill: rgb(255,246,0); fill-rule: nonzero; opacity: 1;" vector-effect="non-scaling-stroke"  transform=" translate(0, 0)" d="M -33.68421 -33.68421 L 33.68421 -33.68421 L 33.68421 33.68421 L -33.68421 33.68421 z" stroke-linecap="round" />
</g>
<g transform="matrix(3.02 0 0 1.28 347 66.05)" id="C9H4CjlqURgAnQhv5rMk7"  >
<path style="stroke: rgb(0,0,0); stroke-width: 3; stroke-dasharray: none; stroke-linecap: butt; stroke-dashoffset: 0; stroke-linejoin: miter; stroke-miterlimit: 4; fill: rgb(0,0,255); fill-rule: nonzero; opacity: 1;" vector-effect="non-scaling-stroke"  transform=" translate(0, 0)" d="M -50 -50 L 50 -50 L 50 50 L -50 50 z" stroke-linecap="round" />
</g>
<g transform="matrix(16.69 0 0 17.11 97.52 187.94)" style="" id="s5jo1nJ5n69n6SNKx4Vk3"  >
		<text xml:space="preserve" font-family="Montserrat" font-size="20" font-style="normal" font-weight="700" line-height="1.16" style="stroke: none; stroke-width: 1; stroke-dasharray: none; stroke-linecap: butt; stroke-dashoffset: 0; stroke-linejoin: miter; stroke-miterlimit: 4; fill: rgb(0,0,0); fill-rule: nonzero; opacity: 1; white-space: pre;" ><tspan x="-5.21" y="6.28" >z</tspan></text>
</g>
<g transform="matrix(13.24 0 0 13.24 359 282.67)" style="" id="CHOkWMlJoj6hlwlHbKmPh"  >
		<text xml:space="preserve" font-family="Montserrat" font-size="20" font-style="normal" font-weight="700" line-height="1.16" style="stroke: none; stroke-width: 1; stroke-dasharray: none; stroke-linecap: butt; stroke-dashoffset: 0; stroke-linejoin: miter; stroke-miterlimit: 4; fill: rgb(255,255,255); fill-rule: nonzero; opacity: 1; white-space: pre;" ><tspan x="-8.36" y="6.28" >G</tspan></text>
</g>
<g transform="matrix(1 0 0 1 356.84 190)" id="lvs0APosCve9cAyeIl0Xk"  >
<path style="stroke: rgb(0,0,0); stroke-width: 1; stroke-dasharray: none; stroke-linecap: round; stroke-dashoffset: 0; stroke-linejoin: round; stroke-miterlimit: 10; fill: none; fill-rule: nonzero; opacity: 1;" vector-effect="non-scaling-stroke"  transform=" translate(-356.84, -190)" d="M 356.8411052631579 190.00000000000006 L 356.84310526315784 190.00000000000006" stroke-linecap="round" />
</g>
</svg>